<?xml version="1.0" encoding="iso-8859-1"?>
<!-- Generator: Adobe Illustrator 19.0.0, SVG Export Plug-In . SVG Version: 6.00 Build 0)  -->
<svg version="1.1" id="Layer_1" xmlns="http://www.w3.org/2000/svg" xmlns:xlink="http://www.w3.org/1999/xlink" x="0px" y="0px"
	 viewBox="0 0 512 512" style="enable-background:new 0 0 512 512;" xml:space="preserve">
<path style="fill:#F7941E;" d="M451.395,155.756c-4.071,28.039-8.13,56.088-12.201,84.127c-2.366,16.283-4.722,32.565-7.078,48.848
	c-4.071,28.039-8.141,56.088-12.201,84.127H92.09c-4.071-28.039-8.13-56.088-12.201-84.127c-2.366-16.283-4.722-32.565-7.078-48.848
	c-4.071-28.039-8.141-56.088-12.201-84.127H451.395z"/>
<rect x="71.462" y="372.862" style="fill:#EFEFEF;" width="369.074" height="43.42"/>
<g>
	<circle style="fill:#A7A9AC;" cx="147.988" cy="444.43" r="27.138"/>
	<circle style="fill:#A7A9AC;" cx="364.005" cy="444.43" r="27.138"/>
	<path style="fill:#A7A9AC;" d="M69.492,155.168l69.523-49.402c7.271-5.166,17.014-5.166,24.284,0l69.523,49.402H69.492z"/>
	<path style="fill:#A7A9AC;" d="M198.619,155.168L305.64,46.677c8.209-8.322,21.638-8.322,29.846,0l107.021,108.491H198.619z"/>
	<path style="fill:#A7A9AC;" d="M167.149,155.168l62.988-59.194c8.069-7.582,20.642-7.582,28.711,0l62.988,59.194H167.149z"/>
</g>
<g>
	<path style="fill:#231F20;" d="M501.145,460.708H398.327c2.352-4.938,3.673-10.459,3.673-16.283c0-6.225-1.515-12.1-4.18-17.292
		h42.716c5.995,0,10.855-4.861,10.855-10.855v-43.42c0-5.994-4.86-10.855-10.855-10.855h-8.077
		c3.463-23.904,28.331-195.392,28.331-195.392h21.177c5.995,0,10.855-4.861,10.855-10.855s-4.86-10.855-10.855-10.855h-34.341
		L343.214,39.053c-6.026-6.109-14.07-9.473-22.651-9.473s-16.625,3.364-22.651,9.473l-41.95,42.526
		c-11.095-4.268-24.116-2.107-33.26,6.485l-28.234,26.534l-24.882-17.681c-11.023-7.832-25.835-7.833-36.86,0.001L65.2,144.902
		H30.033c-5.995,0-10.855,4.861-10.855,10.855s4.86,10.855,10.855,10.855h21.185c3.614,24.943,28.331,195.392,28.331,195.392h-8.085
		c-5.995,0-10.855,4.861-10.855,10.855v43.42c0,5.994,4.86,10.855,10.855,10.855h42.716c-2.666,5.191-4.18,11.066-4.18,17.292
		c0,5.824,1.321,11.345,3.673,16.283H10.855C4.86,460.71,0,465.57,0,471.565s4.86,10.855,10.855,10.855h490.29
		c5.995,0,10.855-4.861,10.855-10.855S507.139,460.708,501.145,460.708z M347.725,444.426c0-8.978,7.304-16.283,16.283-16.283
		c8.978,0,16.283,7.304,16.283,16.283c0,8.978-7.304,16.283-16.283,16.283C355.03,460.708,347.725,453.404,347.725,444.426z
		 M82.207,229.028c-3.02-20.805-6.04-41.612-9.055-62.417h365.701l-9.052,62.417H82.207z M313.368,54.299
		c1.914-1.94,4.469-3.008,7.195-3.008s5.281,1.068,7.195,3.008l88.793,90.014h-90.417l-52.703-49.529L313.368,54.299z
		 M237.57,103.885c3.881-3.645,9.962-3.647,13.842,0l43.019,40.429h-99.882L237.57,103.885z M145.303,114.615
		c3.502-2.487,8.208-2.487,11.708,0l21.318,15.149l-15.483,14.55h-59.338L145.303,114.615z M92.433,299.586h140.172
		c5.995,0,10.855-4.861,10.855-10.855s-4.86-10.855-10.855-10.855H89.285c-1.312-9.046-2.623-18.091-3.932-27.138h341.296
		c-1.312,9.046-2.622,18.092-3.931,27.138h-66.31c-5.995,0-10.855,4.861-10.855,10.855s4.86,10.855,10.855,10.855h63.164
		c-3.02,20.805-6.041,41.612-9.054,62.417H101.486L92.433,299.586z M82.318,383.713h347.364v21.71H82.318
		C82.318,405.423,82.318,383.713,82.318,383.713z M330.195,427.134c-2.666,5.191-4.18,11.066-4.18,17.292
		c0,5.824,1.321,11.345,3.673,16.283H182.311c2.352-4.938,3.673-10.459,3.673-16.283c0-6.225-1.515-12.1-4.18-17.292H330.195z
		 M131.708,444.426c0-8.978,7.304-16.283,16.283-16.283c8.978,0,16.283,7.304,16.283,16.283c0,8.978-7.304,16.283-16.283,16.283
		S131.708,453.404,131.708,444.426z"/>
	<path style="fill:#231F20;" d="M293.992,277.876h-1.086c-5.995,0-10.855,4.861-10.855,10.855s4.86,10.855,10.855,10.855h1.086
		c5.995,0,10.855-4.861,10.855-10.855S299.988,277.876,293.992,277.876z"/>
</g>
<g>
</g>
<g>
</g>
<g>
</g>
<g>
</g>
<g>
</g>
<g>
</g>
<g>
</g>
<g>
</g>
<g>
</g>
<g>
</g>
<g>
</g>
<g>
</g>
<g>
</g>
<g>
</g>
<g>
</g>
</svg>
